<svg xmlns="http://www.w3.org/2000/svg" xmlns:xlink="http://www.w3.org/1999/xlink" width="1507" height="1507" viewBox="0 0 1507 1507">
  <defs>
    <clipPath id="clip-Artboard_45">
      <rect width="1507" height="1507"/>
    </clipPath>
  </defs>
  <g id="Artboard_45" data-name="Artboard – 45" clip-path="url(#clip-Artboard_45)">
    <ellipse id="Ellipse_225" data-name="Ellipse 225" cx="175" cy="196" rx="175" ry="196" transform="translate(889.828 379.834) rotate(-7)" fill="#9a9a9a"/>
    <ellipse id="Ellipse_226" data-name="Ellipse 226" cx="129.5" cy="135" rx="129.5" ry="135" transform="translate(672.085 862.972) rotate(-7)" fill="#9a9a9a"/>
    <ellipse id="Ellipse_224" data-name="Ellipse 224" cx="129.5" cy="135" rx="129.5" ry="135" transform="translate(253.007 789.497) rotate(-7)" fill="#9a9a9a"/>
    <path id="Exclusion_6" data-name="Exclusion 6" d="M326.634,0H234.364L211.731,38.512a250.426,250.426,0,0,0-53.7,22.255L114.779,49.535,49.534,114.779l11.229,43.245a250.341,250.341,0,0,0-22.271,53.718L0,234.366v92.27l38.494,22.622a250.336,250.336,0,0,0,22.27,53.717L49.534,446.221l65.245,65.245,43.257-11.233a250.47,250.47,0,0,0,53.7,22.256L234.365,561h92.27l22.641-38.525a250.322,250.322,0,0,0,53.661-22.249l43.285,11.24,65.245-65.245-11.243-43.3a250.32,250.32,0,0,0,22.234-53.637L561,326.636v-92.27l-38.543-22.653a250.336,250.336,0,0,0-22.234-53.638l11.243-43.3L446.221,49.535l-43.285,11.24a250.322,250.322,0,0,0-53.66-22.249L326.634,0ZM280.48,422a142.545,142.545,0,0,1-28.517-2.875,140.72,140.72,0,0,1-50.6-21.291A141.913,141.913,0,0,1,150.1,335.578a140.79,140.79,0,0,1-8.245-26.561,142.879,142.879,0,0,1,0-57.034,140.723,140.723,0,0,1,21.291-50.6A141.914,141.914,0,0,1,225.4,150.12a140.786,140.786,0,0,1,26.561-8.245,142.879,142.879,0,0,1,57.034,0,140.722,140.722,0,0,1,50.6,21.291,141.914,141.914,0,0,1,51.266,62.256,140.789,140.789,0,0,1,8.245,26.561,142.879,142.879,0,0,1,0,57.034,140.726,140.726,0,0,1-21.291,50.6,141.915,141.915,0,0,1-62.256,51.266A140.79,140.79,0,0,1,309,419.126,142.544,142.544,0,0,1,280.48,422Z" transform="matrix(-0.819, 0.574, -0.574, -0.819, 1478.252, 622.409)" fill="#b7b7b7"/>
    <path id="Exclusion_7" data-name="Exclusion 7" d="M273.651,0h-77.3L177.386,32.265A209.805,209.805,0,0,0,132.4,50.91L96.161,41.5,41.5,96.161l9.408,36.23a209.733,209.733,0,0,0-18.658,45L0,196.349v77.3L32.25,292.6a209.729,209.729,0,0,0,18.657,45L41.5,373.84,96.161,428.5l36.24-9.411a209.843,209.843,0,0,0,44.986,18.646L196.348,470h77.3l18.969-32.276a209.716,209.716,0,0,0,44.956-18.64l36.263,9.417L428.5,373.84l-9.419-36.273a209.718,209.718,0,0,0,18.627-44.937L470,273.652v-77.3l-32.291-18.979a209.73,209.73,0,0,0-18.627-44.937L428.5,96.161,373.839,41.5l-36.263,9.417a209.717,209.717,0,0,0-44.956-18.64L273.651,0ZM234.983,353.548a119.422,119.422,0,0,1-23.891-2.408A117.895,117.895,0,0,1,168.7,333.3a118.893,118.893,0,0,1-42.95-52.158,117.952,117.952,0,0,1-6.908-22.253,119.7,119.7,0,0,1,0-47.783,117.9,117.9,0,0,1,17.837-42.389,118.894,118.894,0,0,1,52.157-42.95,117.948,117.948,0,0,1,22.253-6.908,119.7,119.7,0,0,1,47.783,0A117.9,117.9,0,0,1,301.264,136.7a118.9,118.9,0,0,1,42.95,52.157,117.953,117.953,0,0,1,6.908,22.253,119.7,119.7,0,0,1,0,47.783,117.9,117.9,0,0,1-17.838,42.39,118.894,118.894,0,0,1-52.157,42.951,117.949,117.949,0,0,1-22.252,6.908A119.421,119.421,0,0,1,234.983,353.548Z" transform="matrix(-0.978, 0.208, -0.208, -0.978, 1088.775, 1163.305)" fill="#b7b7b7"/>
    <path id="Exclusion_8" data-name="Exclusion 8" d="M225.325,0H161.674L146.061,26.567A172.757,172.757,0,0,0,109.019,41.92l-29.84-7.749L34.171,79.179l7.746,29.832a172.694,172.694,0,0,0-15.363,37.057L0,161.675v63.651l26.555,15.606a172.692,172.692,0,0,0,15.362,37.056l-7.746,29.833,45.008,45.008,29.84-7.749a172.784,172.784,0,0,0,37.041,15.353L161.674,387h63.651l15.619-26.576a172.682,172.682,0,0,0,37.017-15.348l29.859,7.754,45.008-45.008-7.756-29.867a172.684,172.684,0,0,0,15.338-37L387,225.326V161.675l-26.589-15.627a172.7,172.7,0,0,0-15.338-37l7.756-29.867L307.821,34.171l-29.859,7.754a172.682,172.682,0,0,0-37.017-15.348L225.325,0ZM193.486,291.113a98.33,98.33,0,0,1-19.672-1.983,97.075,97.075,0,0,1-34.9-14.688A97.9,97.9,0,0,1,103.545,231.5a97.122,97.122,0,0,1-5.688-18.323,98.564,98.564,0,0,1,0-39.345,97.076,97.076,0,0,1,14.687-34.9,97.9,97.9,0,0,1,42.946-35.365,97.122,97.122,0,0,1,18.323-5.688,98.565,98.565,0,0,1,39.345,0,97.076,97.076,0,0,1,34.9,14.688A97.9,97.9,0,0,1,283.427,155.5a97.123,97.123,0,0,1,5.688,18.323,98.565,98.565,0,0,1,0,39.345,97.077,97.077,0,0,1-14.688,34.9,97.9,97.9,0,0,1-42.946,35.366,97.119,97.119,0,0,1-18.323,5.688A98.33,98.33,0,0,1,193.486,291.113Z" transform="matrix(-0.839, 0.545, -0.545, -0.839, 664.871, 955.372)" fill="#b7b7b7"/>
    <g id="Group_204" data-name="Group 204" transform="translate(9551.013 -1750.986) rotate(37)">
      <rect id="Rectangle_184" data-name="Rectangle 184" width="106" height="834" transform="translate(-5693 7140.382)" fill="#a18ec4"/>
      <rect id="Rectangle_185" data-name="Rectangle 185" width="106" height="155" transform="translate(-5693 7140.382)" fill="#d0c3e8"/>
      <rect id="Rectangle_186" data-name="Rectangle 186" width="106" height="156" transform="translate(-5693 7818.382)" fill="#d0c3e8"/>
    </g>
    <path id="Path_444" data-name="Path 444" d="M127.136,0S129,36.467,142.162,68.251,179.8,127.136,179.8,127.136s-36.6,1.549-68.38,14.714S52.662,179.8,52.662,179.8s.7-37.527-12.465-69.312S0,52.662,0,52.662s38.572,3.223,70.357-9.942S127.136,0,127.136,0Z" transform="matrix(0.964, 0.267, -0.267, 0.964, 743.94, 238.71)" fill="#eab663"/>
    <path id="Path_446" data-name="Path 446" d="M106.844,0s1.563,30.646,12.627,57.357S151.1,106.844,151.1,106.844s-30.755,1.3-57.466,12.365S44.256,151.1,44.256,151.1s.589-31.538-10.476-58.249S0,44.256,0,44.256,32.416,46.965,59.127,35.9,106.844,0,106.844,0Z" transform="translate(509.338 375.236) rotate(40.5)" fill="#eab663"/>
    <path id="Path_447" data-name="Path 447" d="M97.3,0s1.424,27.91,11.5,52.236,28.8,45.068,28.8,45.068S109.6,98.488,85.273,108.565,40.3,137.608,40.3,137.608s.536-28.721-9.54-53.047S0,40.3,0,40.3,29.521,42.771,53.847,32.7,97.3,0,97.3,0Z" transform="translate(972.339 647.409) rotate(44.5)" fill="#eab663"/>
  </g>
</svg>
